<svg width="22" height="15" viewBox="0 0 22 15" fill="none" xmlns="http://www.w3.org/2000/svg">
<path d="M2.6001 14.7383C1.41583 14.7383 0.440186 13.7624 0.440186 12.5784V2.49836C0.440186 1.31409 1.41604 0.338449 2.6001 0.338449H19.4001C20.5844 0.338449 21.56 1.31431 21.56 2.49836V12.5784C21.56 13.7626 20.5842 14.7383 19.4001 14.7383H2.6001ZM2.6001 13.2982H19.4001C19.8114 13.2982 20.1201 12.9895 20.1201 12.5782V2.49815C20.1201 2.08682 19.8114 1.77811 19.4001 1.77811H2.6001C2.18877 1.77811 1.88006 2.08681 1.88006 2.49815V12.5782C1.88006 12.9895 2.18876 13.2982 2.6001 13.2982ZM18.3051 11.8807C18.1271 11.8717 17.9587 11.7969 17.8327 11.6706L11.5027 5.82835C11.1955 5.54476 10.7887 5.54526 10.4826 5.82835L4.16764 11.6711C4.02618 11.8042 3.83684 11.8745 3.64264 11.8661C3.45096 11.8589 3.26999 11.7755 3.13993 11.6344C3.01002 11.4934 2.94155 11.3063 2.95008 11.1146C2.95862 10.9229 3.04317 10.7426 3.18513 10.6136L6.57522 7.47864L3.20022 4.47863C3.03766 4.35827 2.93319 4.17529 2.91227 3.97438C2.89134 3.77332 2.95596 3.57276 3.09006 3.42161C3.22432 3.27044 3.41584 3.18271 3.61806 3.1797C3.82012 3.17685 4.01415 3.25889 4.15278 3.40604L7.63274 6.50345L9.50774 4.77091C10.3403 4.00098 11.6451 3.99511 12.4778 4.76354L14.3603 6.50363L17.8478 3.40621H17.8477C17.9863 3.25906 18.1803 3.17686 18.3824 3.17988C18.5846 3.18272 18.7761 3.27045 18.9104 3.42162C19.0445 3.57279 19.1091 3.77334 19.0882 3.97439C19.0673 4.17545 18.9628 4.35843 18.8002 4.47864L15.4177 7.48619L18.8078 10.6138V10.6136C18.9615 10.7445 19.0532 10.9337 19.0606 11.1354C19.0681 11.3372 18.9906 11.5327 18.8469 11.6745C18.7033 11.8161 18.5068 11.8913 18.3052 11.8812L18.3051 11.8807Z" fill="black"/>
</svg>
