<svg width="16" height="16" viewBox="0 0 16 16" fill="none" xmlns="http://www.w3.org/2000/svg">
<path d="M14.3675 4.63988C14.24 3.93613 13.6325 3.42363 12.9275 3.26363C11.8725 3.03988 9.91996 2.87988 7.80746 2.87988C5.69621 2.87988 3.71246 3.03988 2.65621 3.26363C1.95246 3.42363 1.34371 3.90363 1.21621 4.63988C1.08746 5.43988 0.959961 6.55988 0.959961 7.99988C0.959961 9.43988 1.08746 10.5599 1.24746 11.3599C1.37621 12.0636 1.98371 12.5761 2.68746 12.7361C3.80746 12.9599 5.72746 13.1199 7.83996 13.1199C9.95246 13.1199 11.8725 12.9599 12.9925 12.7361C13.6962 12.5761 14.3037 12.0961 14.4325 11.3599C14.56 10.5599 14.72 9.40738 14.7525 7.99988C14.6875 6.55988 14.5275 5.43988 14.3675 4.63988ZM6.07996 10.2399V5.75988L9.98371 7.99988L6.07996 10.2399Z" fill="black"/>
</svg>
