<svg width="17" height="17" viewBox="0 0 17 17" fill="none" xmlns="http://www.w3.org/2000/svg">
<path d="M5.09993 14.1666H2.2666V5.66662H5.09993V14.1666ZM3.68383 4.53328C2.90013 4.53328 2.2666 3.89805 2.2666 3.11605C2.2666 2.33405 2.90127 1.69995 3.68383 1.69995C4.4647 1.69995 5.09993 2.33518 5.09993 3.11605C5.09993 3.89805 4.4647 4.53328 3.68383 4.53328ZM15.2999 14.1666H12.576V10.03C12.576 9.04339 12.5573 7.77462 11.1599 7.77462C9.7415 7.77462 9.52333 8.84902 9.52333 9.95855V14.1666H6.79993V5.66038H9.41454V6.82262H9.45137C9.81517 6.15395 10.7043 5.44902 12.0303 5.44902C14.7899 5.44902 15.2999 7.21078 15.2999 9.50125V14.1666Z" fill="black"/>
</svg>
