<svg width="14" height="14" viewBox="0 0 14 14" fill="none" xmlns="http://www.w3.org/2000/svg">
<g clip-path="url(#clip0_413_55)">
<path d="M14.0173 2.92244C13.5 3.15213 12.9454 3.30635 12.3625 3.37635C12.9575 3.01978 13.4146 2.45541 13.629 1.78385C13.0734 2.11307 12.4554 2.3526 11.8003 2.48166C11.2753 1.92166 10.5271 1.57275 9.69918 1.57275C8.10887 1.57275 6.81934 2.86119 6.81934 4.4515C6.81934 4.67682 6.84559 4.89666 6.8948 5.10775C4.50168 4.98744 2.3809 3.84119 0.960117 2.09885C0.711836 2.52541 0.570742 3.01978 0.570742 3.54697C0.570742 4.54557 1.07824 5.42713 1.85152 5.94447C1.37902 5.92916 0.934961 5.799 0.54668 5.58353C0.54668 5.59557 0.54668 5.6076 0.54668 5.61963C0.54668 7.01525 1.5398 8.17791 2.85559 8.44369C2.61496 8.50932 2.36012 8.54432 2.09762 8.54432C1.91168 8.54432 1.73121 8.52682 1.55512 8.49182C1.92262 9.63478 2.98574 10.4693 4.24465 10.4923C3.26027 11.2645 2.01887 11.7238 0.66918 11.7238C0.436211 11.7238 0.207617 11.7107 -0.0166016 11.6834C1.25652 12.5015 2.77027 12.9773 4.39668 12.9773C9.69262 12.9773 12.5889 8.59025 12.5889 4.78619C12.5889 4.6615 12.5856 4.53572 12.5812 4.41322C13.1434 4.00744 13.6312 3.49994 14.0173 2.92244Z" fill="black"/>
</g>
<defs>
<clipPath id="clip0_413_55">
<rect width="14" height="14" fill="black"/>
</clipPath>
</defs>
</svg>
