<svg width="16" height="16" viewBox="0 0 16 16" fill="red" xmlns="http://www.w3.org/2000/svg">
<g clip-path="url(#clip0_413_67)">
<path d="M5.11996 0.959961C2.82556 0.959961 0.959961 2.82556 0.959961 5.11996V10.88C0.959961 13.1744 2.82556 15.04 5.11996 15.04H10.88C13.1744 15.04 15.04 13.1744 15.04 10.88V5.11996C15.04 2.82556 13.1744 0.959961 10.88 0.959961H5.11996ZM11.84 3.51996C12.192 3.51996 12.48 3.80796 12.48 4.15996C12.48 4.51196 12.192 4.79996 11.84 4.79996C11.488 4.79996 11.2 4.51196 11.2 4.15996C11.2 3.80796 11.488 3.51996 11.84 3.51996ZM7.99996 4.47996C9.94236 4.47996 11.52 6.05756 11.52 7.99996C11.52 9.94236 9.94236 11.52 7.99996 11.52C6.05756 11.52 4.47996 9.94236 4.47996 7.99996C4.47996 6.05756 6.05756 4.47996 7.99996 4.47996ZM7.99996 5.11996C6.41276 5.11996 5.11996 6.41276 5.11996 7.99996C5.11996 9.58716 6.41276 10.88 7.99996 10.88C9.58716 10.88 10.88 9.58716 10.88 7.99996C10.88 6.41276 9.58716 5.11996 7.99996 5.11996Z" fill="black"/>
</g>
<defs>
<clipPath id="clip0_413_67">
<rect width="16" height="16" fill="red"/>
</clipPath>
</defs>
</svg>
