<svg width="14" height="24" viewBox="0 0 14 24" fill="none" xmlns="http://www.w3.org/2000/svg">
<path d="M13.84 2.51965C13.84 2.01038 13.6376 1.52207 13.2775 1.16194C12.9176 0.801839 12.4292 0.599609 11.92 0.599609H2.07996C1.57068 0.599609 1.08237 0.801844 0.722412 1.16194C0.362314 1.52204 0.159912 2.01038 0.159912 2.51965V21.4797C0.159912 21.9889 0.362314 22.4772 0.722412 22.8374C1.08234 23.1975 1.57068 23.3997 2.07996 23.3997H11.92C12.4292 23.3997 12.9175 23.1975 13.2775 22.8374C13.6376 22.4773 13.84 21.9889 13.84 21.4797V2.51965ZM12.3999 21.4797C12.3999 21.6071 12.3494 21.7291 12.2593 21.8192C12.1694 21.9091 12.0472 21.9596 11.9199 21.9596H2.07995C1.81494 21.9596 1.59999 21.7448 1.59999 21.4797V18.5037H12.4L12.3999 21.4797ZM12.3999 17.0637H1.59991V5.56765H12.3999V17.0637ZM12.3999 4.12765H1.59991V2.51965C1.59991 2.25447 1.81487 2.0397 2.07987 2.0397H11.9199C12.0471 2.0397 12.1693 2.09025 12.2592 2.18015C12.3493 2.27022 12.3998 2.39226 12.3998 2.51966L12.3999 4.12765Z" fill="black"/>
<path d="M7.96011 20.2555C7.96011 20.7857 7.53038 21.2154 7.0002 21.2154C6.47001 21.2154 6.04028 20.7857 6.04028 20.2555C6.04028 19.7253 6.47001 19.2954 7.0002 19.2954C7.53038 19.2954 7.96011 19.7253 7.96011 20.2555Z" fill="black"/>
</svg>
