<svg width="30" height="30" viewBox="0 0 30 30" fill="none" xmlns="http://www.w3.org/2000/svg">
<path d="M8.56791 16.152L14.9999 22.584L20.9279 16.656C20.976 16.6079 21.0479 16.56 21.096 16.4879C24.4559 13.128 24.4559 7.67989 21.096 4.31989C19.4639 2.71206 17.304 1.82397 15 1.82397C12.696 1.82397 10.536 2.71193 8.92799 4.34402C5.68791 7.5841 5.56808 12.768 8.56806 16.152L8.56791 16.152ZM10.2718 5.68797C11.5438 4.41597 13.1998 3.74401 14.9998 3.74401C16.7998 3.74401 18.4559 4.43993 19.7278 5.68797C22.3198 8.27997 22.3198 12.528 19.7278 15.12C19.6319 15.2159 19.5358 15.312 19.4399 15.384L18.6959 16.0799L18.744 16.1279L14.9998 19.8721L11.2798 16.152L11.3278 16.104L10.5598 15.432C10.4638 15.3361 10.3677 15.2639 10.2718 15.168C7.67981 12.5281 7.67981 8.30397 10.2718 5.68797H10.2718Z" fill="black"/>
<path d="M14.9999 13.92C16.9919 13.92 18.5999 12.312 18.5999 10.32C18.5999 8.32797 16.9919 6.71997 14.9999 6.71997C13.0079 6.71997 11.3999 8.32797 11.3999 10.32C11.3999 12.312 13.0079 13.92 14.9999 13.92ZM14.9999 8.63997C15.9359 8.63997 16.6799 9.38393 16.6799 10.3199C16.6799 11.2559 15.9359 11.9999 14.9999 11.9999C14.0639 11.9999 13.3199 11.2559 13.3199 10.3199C13.3199 9.38393 14.0639 8.63997 14.9999 8.63997Z" fill="black"/>
</svg>
