<svg width="418" height="162" viewBox="0 0 418 162" fill="none" xmlns="http://www.w3.org/2000/svg">
<path fill-rule="evenodd" clip-rule="evenodd" d="M391.3 12.7113C387.95 12.7113 384.707 13.3305 381.706 14.8651C379.079 16.2112 376.828 18.0957 375.274 20.6264C373.666 23.184 372.996 26.0377 372.996 29.026C372.996 31.2605 373.398 33.4681 374.336 35.4873C375.274 37.4795 376.641 39.1487 378.356 40.5217C380.312 42.1101 382.456 43.4831 384.707 44.6677C386.556 45.6907 388.459 46.633 390.335 47.5483L391.219 47.9791L392.157 48.4367C395.561 50.052 399.045 51.6135 402.448 53.3096C404.887 54.6019 407.165 56.2172 409.309 57.9402C411.64 59.8247 413.543 62.0862 414.963 64.7514C416.384 67.5782 417 70.6204 417 73.7433C417 77.8893 415.66 81.6584 413.302 85.0506C410.675 88.8465 407.004 91.5657 402.904 93.5579C398.16 95.8462 393.015 96.7885 387.762 96.7885C385.511 96.7885 383.26 96.627 381.036 96.3308C380.259 96.2231 379.481 96.0885 378.731 95.9001C378.463 95.8462 378.168 95.7924 377.873 95.7385L377.471 95.6578L377.177 95.577C375.328 95.2001 373.425 94.9847 371.495 94.9847C370.691 94.9578 369.083 94.9847 368.547 95.7116C368.387 95.927 368.306 96.1693 368.279 96.3847V98H365.948V73.2318H368.172L368.253 73.6895C368.735 76.3548 369.673 78.9393 370.799 81.3892C372.969 85.9659 376.132 90.058 380.902 91.9964C383.367 92.7233 386.101 93.2887 388.7 93.2887C392.05 93.2887 395.373 92.6964 398.348 91.1349C400.947 89.7888 403.145 87.9043 404.753 85.4544C406.334 82.8699 407.004 79.9892 407.004 76.974C407.004 74.7395 406.656 72.5049 405.691 70.5127C404.753 68.5474 403.413 66.9052 401.725 65.5322C399.741 63.9168 397.598 62.5169 395.346 61.3054C393.47 60.3093 391.541 59.367 389.638 58.4517L388.781 58.0209L387.843 57.644C384.386 56.0287 380.955 54.4134 377.552 52.6904C375.113 51.3981 372.835 49.7828 370.691 48.0598C368.36 46.1753 366.511 43.9138 365.117 41.2486C363.67 38.4487 363 35.4065 363 32.2567C363 28.1107 364.34 24.3416 366.698 20.9494C369.325 17.1534 372.969 14.4343 377.096 12.4421C381.867 10.1538 387.039 9.21148 392.291 9.21148C394.516 9.21148 396.767 9.37303 398.991 9.66917C399.768 9.8307 400.545 9.93838 401.323 10.0999C401.591 10.1538 401.859 10.2076 402.153 10.2614L402.529 10.3422L402.823 10.423C404.672 10.7999 406.575 11.0153 408.505 11.0691C409.255 11.0691 410.917 11.0152 411.453 10.2614C411.613 10.073 411.694 9.80376 411.721 9.61531V8H414.052V32.7682H411.801L411.721 32.3105C411.211 29.6452 410.3 27.0607 409.175 24.6108C408.156 22.4032 406.924 20.3033 405.316 18.4726C403.574 16.5073 401.483 14.9728 399.071 14.0036C396.579 13.1421 393.953 12.7113 391.3 12.7113Z" fill="white"/>
<path fill-rule="evenodd" clip-rule="evenodd" d="M360.459 14.0565C357.971 14.1633 354.617 14.6974 353.292 17.0476C352.318 18.8637 351.723 20.8134 351.723 22.8698L351.642 66.9099V69.5004C351.588 70.9693 351.48 72.4382 351.291 73.8804C350.831 77.6728 349.911 81.492 348.289 84.9906C343.285 95.7536 333.874 100 322.163 100C315.97 100 309.966 98.7715 304.638 95.62C300.121 92.9493 296.199 89.4507 293.711 84.8036C292.089 81.8124 291.007 78.6343 290.547 75.2692C290.087 71.9041 289.898 68.5123 289.898 65.1205V22.9499C289.898 20.8401 289.519 18.7035 288.41 16.8607C287.22 14.7775 283.677 14.2434 281.514 14.0565L281 14.003V12H309.046V14.003L308.559 14.0565C306.26 14.3235 302.717 15.0446 301.419 17.2079C300.364 18.9706 299.878 20.8935 299.878 22.9499V64.4528C299.878 70.0079 300.175 77.6995 302.42 82.8807C304.178 86.9402 306.855 90.2786 310.588 92.7089C314.103 95.0325 317.971 96.261 322.19 96.261L323.137 96.1809H324.489C325.598 96.1008 326.707 95.9672 327.788 95.7536C330.655 95.2461 333.468 94.3381 335.956 92.8425C344.34 87.7414 346.504 78.1803 346.504 69.0464V22.9499C346.504 20.8668 346.044 18.8637 344.962 17.0744C343.664 14.8844 339.986 14.2968 337.687 14.0832L337.173 14.0297V12H361V14.0297L360.459 14.0565Z" fill="white"/>
<path fill-rule="evenodd" clip-rule="evenodd" d="M242.688 10.9814C245.897 12.2707 250.348 13.8017 253.854 13.8017C255.527 13.8017 256.983 13.2645 258.224 12.1901C258.575 11.8141 259.006 11.3574 259.303 10.874C259.411 10.7397 259.626 10.4979 259.653 10.3636V9.85331H262V35.7727H259.815L259.68 35.3967C258.116 31.0186 255.554 27.0434 252.56 23.5248C249.755 20.2479 246.464 17.5083 242.661 15.4132C238.049 12.8884 233.086 11.6529 227.799 11.6529C224.05 11.6529 220.328 12.3244 216.74 13.3988C212.614 14.6612 208.945 16.9711 205.709 19.7645C201.663 23.2294 198.831 27.9029 196.781 32.7913C194.084 39.2376 193.274 46.5971 193.274 53.5269C193.274 59.8926 194.003 66.5 196.187 72.5165C197.941 77.3781 200.449 82.0248 204.117 85.7045C207.3 88.9277 210.995 91.533 215.284 93.064C219.357 94.5413 223.591 95.2934 227.934 95.2934C235.297 95.2934 241.96 93.0909 248.055 88.9814C250.321 87.4504 252.425 85.7045 254.421 83.8244C255.176 83.126 255.931 82.374 256.632 81.5682C256.956 81.3264 257.307 80.8698 257.523 80.6012L257.927 80.1446L258.709 79.312L260.732 81.8099L260.409 82.1591C259.788 82.8306 259.141 83.5021 258.494 84.1467C257.684 85.0062 256.821 85.8657 255.958 86.6715C253.693 88.6859 251.319 90.6198 248.811 92.2851C242.526 96.4483 235.513 99 227.934 99C219.653 99 211.831 97.0124 204.711 92.8223C197.698 88.7128 192.115 83.126 188.042 76.1426C183.942 69.1322 182 61.5041 182 53.3926C182 47.2149 183.133 41.2252 185.587 35.531C187.961 30.0248 191.332 25.1901 195.675 21.0269C199.991 16.8905 204.927 13.6942 210.456 11.438C216.012 9.18181 221.784 8 227.799 8C230.712 8 233.625 8.2686 236.484 8.88637C238.615 9.42356 240.692 10.1756 242.688 10.9814Z" fill="white"/>
<path fill-rule="evenodd" clip-rule="evenodd" d="M122.527 8C127.029 8 131.316 8.56438 135.362 9.72002V15.0951C131.504 13.2407 127.243 12.2463 122.527 12.2463C112.505 12.2463 104.573 16.7345 98.169 24.3133C91.1216 32.6985 87.9596 42.508 87.9596 53.4463C87.9596 64.4114 91.0948 74.2478 98.169 82.6598C104.573 90.2655 112.505 94.7268 122.527 94.7268C132.549 94.7268 140.507 90.2655 146.885 82.6598C153.932 74.2478 157.094 64.4114 157.094 53.4463C157.094 48.5818 156.451 43.9324 155.138 39.5248H165.963C167.33 43.8786 168 48.5281 168 53.4463C168 66.0239 163.579 76.7741 154.709 85.6698C145.813 94.5656 135.067 99 122.5 99C109.959 99 99.2409 94.5387 90.3445 85.6698C81.475 76.8009 77 66.0239 77 53.4463C77 40.8686 81.475 30.1453 90.3445 21.2764C99.2409 12.4344 109.986 8 122.527 8Z" fill="white"/>
<path fill-rule="evenodd" clip-rule="evenodd" d="M19.0726 52.7416V86.2098C19.0726 88.5928 19.6895 90.8151 21.3527 92.5554C22.8281 94.1083 24.5985 94.9651 26.7445 94.9651H28.4613V97H0V94.9651H1.7168C3.8628 94.9651 5.63324 94.1887 7.05496 92.5822C8.63764 90.8151 9.20097 88.5392 9.20097 86.2098V21.9508C9.20097 19.6214 8.85224 16.4888 6.89402 14.9091C5.39182 13.7042 3.6482 13.0617 1.7168 13.0617H0V11H61V24.9228H58.9881L58.9613 24.4141C58.7735 21.8705 57.8347 19.5946 56.2252 17.6133C54.2133 15.2572 50.7529 14.7484 47.8289 14.7484H19.0726V49.127H41.7397C44.6636 49.127 49.2507 48.8325 51.4771 46.6905C52.8989 45.4054 53.1939 43.1295 53.1939 41.3088V40.7734H55.179V61.0685H53.1939V60.533C53.1939 59.6762 53.1403 58.7123 52.9257 57.8823C52.6574 56.9452 52.2282 56.1152 51.504 55.4191C49.197 53.1432 44.7441 52.7684 41.686 52.7684H19.0726V52.7416Z" fill="white"/>
<path fill-rule="evenodd" clip-rule="evenodd" d="M4.29821 151.552V144.534C4.29821 143.554 4.59371 142.909 5.15785 142.6C5.34589 142.496 5.58766 142.445 5.8563 142.419H6.42045V142.187H0.0537287V142.419H0.295503C0.429822 142.419 0.537274 142.419 0.617865 142.419C0.886503 142.445 1.12828 142.496 1.31633 142.6C1.90733 142.909 2.17597 143.554 2.17597 144.534L2.14911 159.188C2.14911 160.168 1.8536 160.813 1.28946 161.123C1.10141 161.226 0.859643 161.278 0.591006 161.303C0.510415 161.303 0.402962 161.329 0.268644 161.329L0.134327 161.303H0V161.51H6.36672V161.303L6.25926 161.329H6.20553C6.09808 161.329 5.99062 161.329 5.88317 161.303C5.61453 161.278 5.37276 161.226 5.15785 161.123C4.56684 160.839 4.29821 160.194 4.29821 159.188V152.171H16.8973V159.188C16.8973 160.168 16.6018 160.813 16.0377 161.123C15.8496 161.226 15.6078 161.278 15.3392 161.303C15.2318 161.303 15.1243 161.329 15.0168 161.329L14.8825 161.303H14.7482V161.51H21.1418V161.303L21.0343 161.329H20.9C20.7926 161.329 20.6851 161.329 20.5776 161.303C20.309 161.278 20.0672 161.226 19.8792 161.123C19.2882 160.839 18.9927 160.194 18.9927 159.188L19.0195 144.534C19.0195 143.554 19.315 142.909 19.8792 142.6C20.0672 142.496 20.309 142.445 20.6045 142.419H21.1955V142.187H14.8019V142.419H15.0706C15.178 142.419 15.2855 142.419 15.3929 142.419C15.6616 142.445 15.9033 142.496 16.0914 142.6C16.6555 142.909 16.951 143.554 16.951 144.534V151.552H4.29821ZM35.4602 142.78H41.7463C44.0028 142.78 45.1311 143.606 45.1311 145.205H45.346V142.161H31.2694V142.393H31.5381C32.2365 142.393 32.6932 142.625 32.9887 143.064C33.2573 143.502 33.4185 144.018 33.4185 144.586V159.136C33.4185 159.885 33.2036 160.426 32.8007 160.762C32.3977 161.097 31.9947 161.252 31.5381 161.252H31.2694V161.458H45.2654L45.6684 158.44H45.4266L45.3997 158.543L45.3729 158.724C45.346 158.878 45.3192 158.982 45.2923 159.085C45.1848 159.394 45.0774 159.652 44.9162 159.885C44.4595 160.529 43.6267 160.865 42.4716 160.865H37.2063C36.5078 160.865 36.0243 160.658 35.7288 160.22C35.6213 160.065 35.5676 159.859 35.5139 159.601C35.487 159.42 35.4602 159.214 35.4602 158.956V152.042H40.9672C42.1224 152.042 42.9283 152.248 43.385 152.661C43.573 152.816 43.6805 153.022 43.7611 153.28C43.8148 153.461 43.8148 153.667 43.8148 153.925H44.0297V149.565H43.8148C43.8148 150.184 43.6536 150.623 43.3581 150.881C42.9283 151.268 42.1224 151.448 40.9672 151.448H35.4602V142.78ZM59.7719 154.26L63.6671 144.741H63.7477L67.9384 154.26H59.7719ZM72.4247 158.646L64.5536 141L57.1392 158.724C56.79 159.549 56.387 160.168 55.9035 160.581C55.4468 160.994 54.8021 161.226 54.023 161.278V161.484H59.5301V161.278C58.9122 161.278 58.4555 161.2 58.1332 161.02C57.8108 160.865 57.6496 160.504 57.6496 160.014C57.6496 159.627 57.7839 159.136 58.0257 158.517L59.5301 154.828H68.2071L70.0069 158.878L70.0607 159.033L70.0875 159.111L70.1144 159.188L70.195 159.394C70.2487 159.549 70.2756 159.704 70.3293 159.807C70.3562 159.962 70.383 160.065 70.383 160.117C70.383 160.633 70.1681 160.942 69.7652 161.071C69.3354 161.174 68.7443 161.226 67.9653 161.226V161.432H75.5677V161.226C75.0842 161.2 74.7081 161.123 74.4126 161.045C74.1171 160.942 73.7947 160.71 73.4724 160.349C73.1231 160.039 72.7739 159.446 72.4247 158.646ZM89.913 160.891C89.2145 160.891 88.731 160.684 88.4623 160.246C88.3549 160.091 88.2743 159.885 88.2474 159.627C88.2206 159.446 88.1937 159.24 88.1937 158.982V144.483C88.1937 143.502 88.4892 142.857 89.0533 142.548C89.2414 142.445 89.4832 142.393 89.7518 142.367C89.8593 142.367 89.9399 142.367 90.0742 142.367H90.2085H90.3428V142.135H83.9761V142.367H84.1104H84.2179C84.3522 142.367 84.4597 142.367 84.5402 142.367C84.8089 142.393 85.0506 142.445 85.2387 142.548C85.8297 142.857 86.0983 143.502 86.0983 144.483V159.136C86.0983 159.885 85.9103 160.426 85.4805 160.762C85.0775 161.097 84.6746 161.252 84.2179 161.252H83.9492V161.458H97.9453L98.3482 158.44H98.1333L98.1064 158.543L98.0796 158.724C98.0527 158.878 98.0258 158.982 97.999 159.085C97.9184 159.394 97.7841 159.652 97.6229 159.885C97.1662 160.529 96.3334 160.865 95.1783 160.865H89.913V160.891ZM105.897 142.187V145.231H106.085C106.085 143.606 107.213 142.806 109.47 142.806H112.774V159.188C112.774 160.168 112.479 160.813 111.914 161.123C111.726 161.226 111.485 161.278 111.216 161.303C111.108 161.303 111.028 161.329 110.894 161.329L110.759 161.303H110.625V161.51H117.019V161.303L116.911 161.329H116.777C116.669 161.329 116.562 161.329 116.454 161.303C116.186 161.278 115.944 161.226 115.756 161.123C115.165 160.839 114.869 160.194 114.869 159.188L114.896 142.806H118.174C120.43 142.806 121.585 143.631 121.585 145.231H121.773V142.187H105.897ZM134.319 151.552V144.534C134.319 143.554 134.614 142.909 135.178 142.6C135.366 142.496 135.608 142.445 135.877 142.419H136.441V142.187H130.074V142.419H130.316C130.45 142.419 130.558 142.419 130.638 142.419C130.907 142.445 131.149 142.496 131.337 142.6C131.928 142.909 132.197 143.554 132.197 144.534L132.17 159.188C132.17 160.168 131.874 160.813 131.31 161.123C131.122 161.226 130.88 161.278 130.612 161.303C130.531 161.303 130.424 161.329 130.289 161.329L130.155 161.303H130.021V161.51H136.387V161.303L136.28 161.329H136.226C136.119 161.329 136.011 161.329 135.904 161.303C135.635 161.278 135.393 161.226 135.178 161.123C134.587 160.839 134.319 160.194 134.319 159.188V152.171H146.918V159.188C146.918 160.168 146.622 160.813 146.058 161.123C145.87 161.226 145.628 161.278 145.36 161.303C145.252 161.303 145.145 161.329 145.037 161.329L144.903 161.303H144.769V161.51H151.162V161.303L151.055 161.329H150.921C150.813 161.329 150.706 161.329 150.598 161.303C150.33 161.278 150.088 161.226 149.9 161.123C149.309 160.839 149.013 160.194 149.013 159.188L149.04 144.534C149.04 143.554 149.336 142.909 149.9 142.6C150.115 142.496 150.33 142.445 150.625 142.419H151.216V142.187H144.822V142.419H145.091C145.199 142.419 145.306 142.419 145.413 142.419C145.682 142.445 145.924 142.496 146.112 142.6C146.676 142.909 146.972 143.554 146.972 144.534V151.552H134.319ZM173.62 142.29C174.776 142.729 175.662 142.935 176.28 142.935C176.683 142.935 177.059 142.806 177.381 142.548C177.489 142.445 177.596 142.342 177.65 142.238C177.731 142.161 177.757 142.084 177.757 142.058H178.053V147.682H177.757C177.408 146.779 176.844 145.85 176.065 144.947C175.367 144.147 174.561 143.528 173.701 143.09C172.626 142.522 171.444 142.213 170.155 142.213C169.322 142.213 168.436 142.342 167.522 142.625C166.609 142.883 165.749 143.373 164.89 144.096C164.03 144.818 163.305 145.799 162.767 147.088C162.203 148.378 161.935 149.952 161.935 151.835C161.935 153.512 162.176 154.957 162.633 156.17C163.09 157.408 163.735 158.44 164.54 159.214C165.346 160.014 166.26 160.581 167.2 160.916C168.167 161.252 169.188 161.432 170.209 161.432C171.928 161.432 173.54 160.942 175.017 159.988C175.528 159.652 176.038 159.265 176.522 158.801C176.683 158.646 176.871 158.466 177.032 158.285C177.086 158.259 177.166 158.182 177.247 158.053L177.328 157.95L177.408 157.872L177.731 158.233C177.569 158.388 177.435 158.543 177.274 158.672C177.086 158.878 176.871 159.059 176.683 159.24C176.119 159.73 175.555 160.143 175.017 160.504C173.432 161.51 171.821 162 170.182 162C168.221 162 166.421 161.536 164.782 160.607C163.144 159.678 161.854 158.44 160.914 156.866C159.974 155.318 159.517 153.615 159.517 151.784C159.517 150.365 159.786 149.049 160.35 147.785C160.914 146.547 161.693 145.463 162.687 144.534C163.708 143.606 164.836 142.883 166.125 142.393C167.415 141.877 168.758 141.619 170.155 141.619C170.88 141.619 171.552 141.697 172.17 141.826C172.626 141.903 173.11 142.058 173.62 142.29ZM192.237 154.26L196.132 144.741H196.213L200.404 154.26H192.237ZM204.863 158.646L196.992 141L189.578 158.724C189.228 159.549 188.825 160.168 188.342 160.581C187.885 160.994 187.24 161.226 186.461 161.278V161.484H191.968V161.278C191.351 161.278 190.894 161.2 190.571 161.02C190.249 160.865 190.088 160.504 190.088 160.014C190.088 159.627 190.222 159.136 190.464 158.517L191.968 154.828H200.645L202.445 158.878L202.499 159.033L202.526 159.111L202.553 159.188L202.633 159.394C202.687 159.549 202.714 159.704 202.768 159.807C202.794 159.962 202.821 160.065 202.821 160.117C202.821 160.633 202.606 160.942 202.203 161.071C201.774 161.174 201.183 161.226 200.404 161.226V161.432H208.006V161.226C207.523 161.2 207.146 161.123 206.851 161.045C206.555 160.942 206.233 160.71 205.911 160.349C205.561 160.039 205.212 159.446 204.863 158.646ZM220.605 152.377C220.928 152.403 221.733 152.403 223.077 152.377C224.42 152.351 225.548 152.016 226.488 151.371C227.429 150.7 227.912 149.488 227.912 147.708C227.912 146.237 227.482 145.025 226.676 144.096C225.844 143.141 224.581 142.651 222.862 142.651H222.486C222.298 142.651 222.109 142.677 221.948 142.677C221.465 142.703 221.035 142.728 220.632 142.806L220.605 152.377ZM230.706 159.214C231.834 160.555 233.016 161.252 234.252 161.252V161.458C234.118 161.458 234.01 161.484 233.93 161.484H229.739L223.748 153.048L220.578 153.203V159.111C220.578 160.117 220.874 160.762 221.438 161.071C221.653 161.174 221.895 161.226 222.163 161.226C222.271 161.226 222.351 161.252 222.486 161.252H222.727V161.458H216.361V161.252H216.629C216.737 161.252 216.844 161.252 216.952 161.226C217.22 161.2 217.462 161.149 217.65 161.045C218.214 160.736 218.51 160.091 218.51 159.111L218.537 144.483C218.537 143.477 218.241 142.832 217.677 142.522C217.489 142.419 217.247 142.367 216.979 142.342H216.414V142.135H223.345C224.527 142.135 225.548 142.29 226.408 142.574C227.294 142.857 228.02 143.27 228.611 143.786C229.202 144.302 229.631 144.87 229.927 145.489C230.222 146.134 230.357 146.805 230.357 147.501C230.357 148.198 230.222 148.843 229.954 149.488C229.685 150.133 229.255 150.7 228.691 151.19C228.1 151.681 227.348 152.093 226.408 152.377L226.139 152.455L225.87 152.532L230.706 159.214ZM246.448 142.78H252.734C254.991 142.78 256.119 143.606 256.119 145.205H256.334V142.161H242.257V142.393H242.526C243.224 142.393 243.681 142.625 243.977 143.064C244.245 143.502 244.406 144.018 244.406 144.586V159.136C244.406 159.885 244.218 160.426 243.789 160.762C243.386 161.097 242.983 161.252 242.526 161.252H242.257V161.458H256.253L256.656 158.44H256.441L256.415 158.543L256.388 158.724C256.361 158.878 256.334 158.982 256.307 159.085C256.2 159.394 256.092 159.652 255.931 159.885C255.474 160.529 254.642 160.865 253.486 160.865H248.221C247.523 160.865 247.039 160.658 246.744 160.22C246.636 160.065 246.582 159.859 246.529 159.601C246.502 159.42 246.475 159.214 246.475 158.956V152.042H251.982C253.137 152.042 253.943 152.248 254.4 152.661C254.588 152.816 254.695 153.022 254.776 153.28C254.83 153.461 254.83 153.667 254.83 153.925H255.044V149.565H254.83C254.83 150.184 254.695 150.623 254.373 150.881C253.943 151.268 253.137 151.448 251.982 151.448H246.475V142.78H246.448ZM277.717 152.377C278.04 152.403 278.846 152.403 280.189 152.377C281.532 152.351 282.66 152.016 283.601 151.371C284.541 150.7 285.024 149.488 285.024 147.708C285.024 146.237 284.595 145.025 283.762 144.096C282.929 143.141 281.666 142.651 279.974 142.651H279.598C279.41 142.651 279.222 142.677 279.061 142.677C278.577 142.703 278.147 142.728 277.744 142.806L277.717 152.377ZM287.845 159.214C288.973 160.555 290.155 161.252 291.391 161.252V161.458C291.257 161.458 291.149 161.484 291.069 161.484H286.878L280.887 153.048L277.717 153.203V159.111C277.717 160.117 278.013 160.762 278.577 161.071C278.792 161.174 279.034 161.226 279.302 161.226C279.41 161.226 279.49 161.252 279.625 161.252H279.867V161.458H273.5V161.252H273.769C273.876 161.252 273.983 161.252 274.091 161.226C274.36 161.2 274.601 161.149 274.789 161.045C275.353 160.736 275.649 160.091 275.649 159.111L275.676 144.483C275.676 143.477 275.38 142.832 274.816 142.522C274.628 142.419 274.386 142.367 274.118 142.342H273.554V142.135H280.484C281.666 142.135 282.687 142.29 283.547 142.574C284.433 142.857 285.159 143.27 285.75 143.786C286.341 144.302 286.771 144.87 287.066 145.489C287.362 146.134 287.496 146.805 287.496 147.501C287.496 148.198 287.362 148.843 287.093 149.488C286.824 150.133 286.394 150.7 285.83 151.19C285.239 151.681 284.46 152.093 283.547 152.377L283.278 152.455L283.01 152.532L287.845 159.214ZM303.587 142.78H309.873C312.13 142.78 313.258 143.606 313.258 145.205H313.473V142.161H299.397V142.393H299.665C300.364 142.393 300.82 142.625 301.116 143.064C301.384 143.502 301.546 144.018 301.546 144.586V159.136C301.546 159.885 301.331 160.426 300.928 160.762C300.525 161.097 300.122 161.252 299.665 161.252H299.397V161.458H313.393L313.796 158.44H313.581L313.554 158.543L313.527 158.724C313.5 158.878 313.473 158.982 313.446 159.085C313.366 159.394 313.231 159.652 313.07 159.885C312.613 160.529 311.781 160.865 310.626 160.865H305.36C304.662 160.865 304.151 160.658 303.883 160.22C303.775 160.065 303.722 159.859 303.668 159.601C303.641 159.42 303.614 159.214 303.614 158.956V152.042H309.121C310.276 152.042 311.082 152.248 311.539 152.661C311.727 152.816 311.834 153.022 311.915 153.28C311.969 153.461 311.969 153.667 311.969 153.925H312.184V149.565H311.969C311.969 150.184 311.834 150.623 311.512 150.881C311.082 151.268 310.276 151.448 309.121 151.448H303.614V142.78H303.587ZM327.899 154.26L331.794 144.741H331.875L336.066 154.26H327.899ZM340.525 158.646L332.654 141L325.239 158.724C324.89 159.549 324.487 160.168 324.004 160.581C323.547 160.994 322.902 161.226 322.123 161.278V161.484H327.63V161.278C327.012 161.278 326.556 161.2 326.233 161.02C325.911 160.865 325.75 160.504 325.75 160.014C325.75 159.627 325.884 159.136 326.126 158.517L327.63 154.828H336.307L338.107 158.878L338.161 159.033L338.188 159.111L338.215 159.188L338.295 159.394C338.349 159.549 338.376 159.704 338.43 159.807C338.456 159.962 338.483 160.065 338.483 160.117C338.483 160.633 338.268 160.942 337.865 161.071C337.436 161.174 336.845 161.226 336.066 161.226V161.432H343.695V161.226C343.211 161.2 342.835 161.123 342.54 161.045C342.244 160.942 341.922 160.71 341.6 160.349C341.25 160.039 340.901 159.446 340.525 158.646ZM358.04 160.891C357.342 160.891 356.858 160.684 356.589 160.246C356.482 160.091 356.401 159.885 356.375 159.627C356.348 159.446 356.321 159.24 356.321 158.982V144.483C356.321 143.502 356.616 142.857 357.18 142.548C357.368 142.445 357.61 142.393 357.879 142.367C357.986 142.367 358.067 142.367 358.201 142.367H358.336H358.47V142.135H352.103V142.367H352.238H352.345C352.479 142.367 352.587 142.367 352.667 142.367C352.936 142.393 353.178 142.445 353.366 142.548C353.957 142.857 354.225 143.502 354.225 144.483V159.136C354.225 159.885 354.011 160.426 353.608 160.762C353.205 161.097 352.802 161.252 352.372 161.252H352.103V161.458H366.099L366.502 158.44H366.287L366.26 158.543L366.234 158.724C366.207 158.878 366.18 158.982 366.153 159.085C366.072 159.394 365.938 159.652 365.777 159.885C365.32 160.529 364.487 160.865 363.332 160.865H358.04V160.891ZM373.997 142.187V145.231H374.185C374.185 143.606 375.314 142.806 377.57 142.806H380.874V159.188C380.874 160.168 380.579 160.813 380.015 161.123C379.827 161.226 379.585 161.278 379.316 161.303C379.209 161.303 379.101 161.329 378.994 161.329L378.86 161.303H378.725V161.51H385.119V161.303L385.011 161.329H384.877C384.77 161.329 384.662 161.329 384.555 161.303C384.286 161.278 384.044 161.226 383.856 161.123C383.265 160.839 382.97 160.194 382.97 159.188L382.997 142.806H386.274C388.53 142.806 389.686 143.631 389.686 145.231H389.874V142.187H373.997ZM414.615 144.509C415.206 143.554 415.851 142.909 416.603 142.6C416.845 142.496 417.114 142.419 417.409 142.393C417.516 142.393 417.624 142.367 417.731 142.367H418V142.135H412.439V142.367H412.788C412.923 142.367 413.03 142.393 413.165 142.393C413.46 142.445 413.675 142.548 413.836 142.651C414.266 142.986 414.239 143.58 413.702 144.483L408.356 152.816L402.983 144.483C402.446 143.58 402.204 142.986 402.285 142.651C402.312 142.522 402.392 142.419 402.526 142.393C402.607 142.367 402.741 142.342 402.903 142.367V142.135H398.228V142.367H398.47C398.551 142.367 398.631 142.367 398.712 142.393C398.9 142.419 399.088 142.471 399.276 142.6C399.786 142.883 400.324 143.528 400.915 144.509L406.959 154.002V159.24C406.959 160.194 406.664 160.813 406.099 161.097C405.884 161.2 405.67 161.252 405.374 161.278H404.81V161.484H411.177V161.278H410.612C410.344 161.252 410.102 161.2 409.914 161.097C409.35 160.813 409.054 160.194 409.054 159.24V153.383L414.615 144.509Z" fill="white"/>
<path d="M417 121H0V122H417V121Z" fill="white"/>
<path fill-rule="evenodd" clip-rule="evenodd" d="M175 20.7484H165.739V30H154.261V20.7484H145V9.25158H154.261V0H165.739V9.25158H175V20.7484Z" fill="#FF0000"/>
</svg>
