<svg width="123" height="29" viewBox="0 0 123 29" fill="none" xmlns="http://www.w3.org/2000/svg">
<path fill-rule="evenodd" clip-rule="evenodd" d="M114.477 3.6878C113.483 3.6878 112.521 3.87157 111.63 4.327C110.851 4.72649 110.183 5.28579 109.721 6.03685C109.244 6.79589 109.045 7.64283 109.045 8.52971C109.045 9.19288 109.165 9.84806 109.443 10.4473C109.721 11.0386 110.127 11.5339 110.636 11.9414C111.217 12.4128 111.853 12.8203 112.521 13.1719C113.07 13.4755 113.634 13.7552 114.191 14.0268L114.454 14.1547L114.732 14.2905C115.742 14.7699 116.776 15.2333 117.786 15.7367C118.51 16.1202 119.186 16.5996 119.822 17.1109C120.514 17.6702 121.079 18.3414 121.5 19.1324C121.922 19.9714 122.105 20.8742 122.105 21.8011C122.105 23.0315 121.707 24.1501 121.007 25.1568C120.228 26.2834 119.138 27.0904 117.921 27.6817C116.514 28.3608 114.987 28.6405 113.428 28.6405C112.76 28.6405 112.091 28.5925 111.431 28.5046C111.201 28.4727 110.97 28.4327 110.747 28.3768C110.668 28.3608 110.58 28.3448 110.493 28.3289L110.374 28.3049L110.286 28.2809C109.737 28.1691 109.173 28.1051 108.6 28.1051C108.361 28.0971 107.884 28.1051 107.725 28.3209C107.677 28.3848 107.653 28.4567 107.645 28.5206V29H106.954V21.6492H107.614L107.638 21.7851C107.781 22.5761 108.059 23.3431 108.393 24.0702C109.037 25.4285 109.976 26.643 111.392 27.2182C112.123 27.434 112.935 27.6018 113.706 27.6018C114.7 27.6018 115.686 27.426 116.569 26.9626C117.341 26.5631 117.993 26.0038 118.47 25.2767C118.939 24.5096 119.138 23.6547 119.138 22.7599C119.138 22.0967 119.035 21.4335 118.749 20.8423C118.47 20.259 118.072 19.7716 117.571 19.3641C116.983 18.8847 116.347 18.4692 115.678 18.1097C115.122 17.8141 114.549 17.5344 113.984 17.2627L113.73 17.1349L113.451 17.0231C112.425 16.5437 111.407 16.0643 110.397 15.5529C109.674 15.1694 108.998 14.69 108.361 14.1786C107.669 13.6193 107.121 12.9482 106.707 12.1572C106.277 11.3262 106.079 10.4233 106.079 9.48851C106.079 8.25806 106.476 7.13946 107.176 6.13272C107.956 5.00614 109.037 4.19915 110.262 3.6079C111.678 2.92875 113.213 2.6491 114.772 2.6491C115.432 2.6491 116.1 2.69704 116.76 2.78493C116.991 2.83287 117.221 2.86483 117.452 2.91277C117.532 2.92875 117.611 2.94473 117.699 2.96071L117.81 2.98468L117.897 3.00865C118.446 3.12051 119.011 3.18443 119.584 3.20041C119.806 3.20041 120.299 3.18442 120.459 2.96071C120.506 2.90478 120.53 2.82488 120.538 2.76895V2.28955H121.23V9.64032H120.562L120.538 9.50449C120.387 8.71348 120.117 7.94645 119.782 7.21936C119.48 6.56418 119.114 5.94097 118.637 5.39765C118.12 4.81438 117.5 4.35895 116.784 4.07131C116.044 3.81563 115.265 3.6878 114.477 3.6878Z" fill="#011850"/>
<path fill-rule="evenodd" clip-rule="evenodd" d="M105.161 3.65885C104.449 3.69035 103.489 3.84784 103.11 4.54082C102.831 5.0763 102.661 5.65116 102.661 6.25751L102.638 19.243V20.0068C102.622 20.4399 102.591 20.873 102.537 21.2983C102.405 22.4165 102.142 23.5426 101.678 24.5742C100.246 27.7477 97.5524 28.9998 94.2011 28.9998C92.4286 28.9998 90.7103 28.6376 89.1856 27.7083C87.893 26.9209 86.7707 25.8893 86.0587 24.5191C85.5943 23.6371 85.2847 22.7 85.1531 21.7078C85.0215 20.7156 84.9673 19.7155 84.9673 18.7154V6.28114C84.9673 5.65903 84.859 5.02905 84.5416 4.48569C84.2011 3.87146 83.1871 3.71397 82.5679 3.65885L82.4209 3.6431V3.05249H90.4472V3.6431L90.3079 3.65885C89.65 3.7376 88.636 3.95022 88.2645 4.58807C87.9627 5.1078 87.8234 5.67478 87.8234 6.28114V18.5185C87.8234 20.1564 87.9085 22.4244 88.5509 23.9521C89.054 25.149 89.8203 26.1334 90.8884 26.85C91.8946 27.5351 93.0014 27.8973 94.2088 27.8973L94.4797 27.8737H94.8667C95.184 27.8501 95.5014 27.8107 95.811 27.7477C96.6314 27.5981 97.4363 27.3303 98.1484 26.8894C100.548 25.3853 101.167 22.5661 101.167 19.873V6.28114C101.167 5.66691 101.035 5.0763 100.726 4.54869C100.354 3.90296 99.3017 3.72972 98.6438 3.66672L98.4967 3.65097V3.05249H105.316V3.65097L105.161 3.65885Z" fill="#011850"/>
<path fill-rule="evenodd" clip-rule="evenodd" d="M70.7887 3.16466C71.7073 3.54308 72.981 3.99246 73.9844 3.99246C74.463 3.99246 74.8798 3.83479 75.2349 3.51943C75.3353 3.40906 75.4588 3.27503 75.5437 3.13312C75.5746 3.0937 75.6363 3.02275 75.644 2.98333V2.83354H76.3156V10.4414H75.6903L75.6517 10.3311C75.204 9.04601 74.4707 7.87919 73.6139 6.84641C72.8111 5.88458 71.8694 5.08043 70.781 4.46549C69.4611 3.72441 68.0408 3.36175 66.5278 3.36175C65.4549 3.36175 64.3897 3.55885 63.363 3.8742C62.182 4.24475 61.1322 4.92276 60.2059 5.74268C59.0481 6.75969 58.2376 8.13148 57.6509 9.56634C56.879 11.4585 56.6475 13.6186 56.6475 15.6527C56.6475 17.5211 56.8559 19.4606 57.4811 21.2265C57.9829 22.6535 58.7007 24.0174 59.7505 25.0975C60.6614 26.0436 61.7189 26.8083 62.9462 27.2577C64.1118 27.6913 65.3237 27.912 66.5664 27.912C68.6737 27.912 70.5803 27.2656 72.3248 26.0593C72.9732 25.61 73.5753 25.0975 74.1465 24.5456C74.3627 24.3407 74.5788 24.1199 74.7795 23.8834C74.8721 23.8124 74.9725 23.6784 75.0342 23.5996L75.15 23.4656L75.3739 23.2212L75.9528 23.9544L75.8602 24.0568C75.6826 24.2539 75.4974 24.451 75.3121 24.6402C75.0805 24.8925 74.8335 25.1448 74.5865 25.3813C73.9381 25.9726 73.2588 26.5403 72.541 27.0291C70.7424 28.251 68.7355 29 66.5664 29C64.1967 29 61.9582 28.4166 59.9203 27.1867C57.9134 25.9805 56.3155 24.3407 55.15 22.2909C53.9767 20.2332 53.4209 17.9942 53.4209 15.6132C53.4209 13.8 53.7451 12.0419 54.4475 10.3705C55.1268 8.7543 56.0917 7.33521 57.3345 6.11321C58.5695 4.8991 59.9821 3.96092 61.5645 3.29868C63.1546 2.63644 64.8065 2.28955 66.5278 2.28955C67.3615 2.28955 68.1951 2.36839 69.0134 2.54972C69.6232 2.7074 70.2175 2.92814 70.7887 3.16466Z" fill="#011850"/>
<path fill-rule="evenodd" clip-rule="evenodd" d="M35.4944 2.28955C36.8158 2.28955 38.0743 2.45521 39.2619 2.79441V4.37211C38.1293 3.82781 36.8787 3.53594 35.4944 3.53594C32.5528 3.53594 30.2247 4.85331 28.3449 7.07787C26.2763 9.53908 25.3482 12.4184 25.3482 15.629C25.3482 18.8475 26.2685 21.7347 28.3449 24.2038C30.2247 26.4362 32.5528 27.7457 35.4944 27.7457C38.4361 27.7457 40.772 26.4362 42.644 24.2038C44.7125 21.7347 45.6406 18.8475 45.6406 15.629C45.6406 14.2012 45.4519 12.8365 45.0665 11.5428H48.244C48.6452 12.8207 48.8418 14.1854 48.8418 15.629C48.8418 19.3208 47.544 22.4762 44.9406 25.0873C42.3294 27.6984 39.1754 29 35.4866 29C31.8056 29 28.6595 27.6905 26.0483 25.0873C23.4449 22.4841 22.1313 19.3208 22.1313 15.629C22.1313 11.9372 23.4449 8.78968 26.0483 6.18647C28.6595 3.59116 31.8135 2.28955 35.4944 2.28955Z" fill="#011850"/>
<path fill-rule="evenodd" clip-rule="evenodd" d="M5.48808 15.2761V25.0769C5.48808 25.7747 5.66561 26.4254 6.14418 26.9351C6.56871 27.3898 7.07815 27.6407 7.69566 27.6407H8.18967V28.2366H0V27.6407H0.494004C1.11151 27.6407 1.62095 27.4134 2.03005 26.9429C2.48546 26.4254 2.64755 25.759 2.64755 25.0769V6.25932C2.64755 5.57718 2.54721 4.65982 1.98374 4.19722C1.55148 3.84439 1.04976 3.65622 0.494004 3.65622H0V3.05249H17.5526V7.12963H16.9737L16.966 6.98065C16.9119 6.23579 16.6418 5.56934 16.1786 4.98913C15.5997 4.29915 14.604 4.15018 13.7627 4.15018H5.48808V14.2176H12.0105C12.8518 14.2176 14.1717 14.1313 14.8124 13.5041C15.2215 13.1277 15.3064 12.4613 15.3064 11.9281V11.7713H15.8776V17.7145H15.3064V17.5577C15.3064 17.3068 15.291 17.0245 15.2292 16.7815C15.152 16.507 15.0285 16.264 14.8201 16.0601C14.1563 15.3937 12.875 15.2839 11.995 15.2839H5.48808V15.2761Z" fill="#011850"/>
<path fill-rule="evenodd" clip-rule="evenodd" d="M51.1315 5.8059H48.3044V8.39472H44.8007V5.8059H41.9736V2.58881H44.8007V0H48.3044V2.58881H51.1315V5.8059Z" fill="#FF0000"/>
</svg>
