<svg width="160" height="38" viewBox="0 0 160 38" fill="none" xmlns="http://www.w3.org/2000/svg">
<path fill-rule="evenodd" clip-rule="evenodd" d="M150.005 4.83219C148.703 4.83219 147.442 5.07299 146.274 5.66976C145.253 6.19324 144.378 6.92612 143.773 7.91026C143.148 8.90488 142.887 10.0147 142.887 11.1768C142.887 12.0458 143.044 12.9043 143.408 13.6895C143.773 14.4643 144.305 15.1134 144.972 15.6473C145.733 16.265 146.566 16.799 147.442 17.2597C148.161 17.6575 148.901 18.0239 149.63 18.3799L149.974 18.5474L150.339 18.7254C151.663 19.3536 153.017 19.9608 154.341 20.6204C155.289 21.1229 156.175 21.7511 157.009 22.4212C157.916 23.1541 158.656 24.0335 159.208 25.07C159.76 26.1693 160 27.3524 160 28.5669C160 30.1792 159.479 31.6449 158.562 32.9641C157.54 34.4403 156.113 35.4978 154.518 36.2725C152.673 37.1624 150.672 37.5289 148.63 37.5289C147.754 37.5289 146.879 37.466 146.014 37.3509C145.712 37.309 145.409 37.2567 145.118 37.1834C145.013 37.1624 144.899 37.1415 144.784 37.1205L144.628 37.0891L144.513 37.0577C143.794 36.9112 143.054 36.8274 142.304 36.8274C141.991 36.8169 141.366 36.8274 141.157 37.1101C141.095 37.1938 141.064 37.2881 141.053 37.3718V38H140.146V28.3679H141.011L141.043 28.5459C141.23 29.5824 141.595 30.5875 142.033 31.5402C142.877 33.3201 144.107 34.9115 145.962 35.6653C146.921 35.9479 147.984 36.1678 148.995 36.1678C150.297 36.1678 151.59 35.9375 152.746 35.3302C153.757 34.8068 154.612 34.0739 155.237 33.1211C155.852 32.1161 156.113 30.9958 156.113 29.8232C156.113 28.9542 155.977 28.0853 155.602 27.3105C155.237 26.5462 154.716 25.9076 154.06 25.3736C153.288 24.7454 152.455 24.201 151.579 23.7299C150.85 23.3425 150.099 22.9761 149.359 22.6201L149.026 22.4526L148.661 22.306C147.317 21.6778 145.983 21.0497 144.659 20.3796C143.711 19.8771 142.825 19.2489 141.991 18.5788C141.084 17.8459 140.365 16.9665 139.823 15.93C139.261 14.8412 139 13.6581 139 12.4331C139 10.8208 139.521 9.35507 140.438 8.03589C141.46 6.55967 142.877 5.50225 144.482 4.72749C146.337 3.83757 148.348 3.47113 150.391 3.47113C151.256 3.47113 152.132 3.53395 152.997 3.64912C153.299 3.71194 153.601 3.75381 153.903 3.81663C154.007 3.83757 154.112 3.85851 154.226 3.87945L154.372 3.91086L154.487 3.94227C155.206 4.08884 155.946 4.1726 156.696 4.19354C156.988 4.19354 157.634 4.1726 157.843 3.87945C157.905 3.80616 157.936 3.70146 157.947 3.62818V3H158.854V12.6321H157.978L157.947 12.4541C157.749 11.4176 157.395 10.4125 156.957 9.45976C156.561 8.60125 156.081 7.78462 155.456 7.07269C154.779 6.3084 153.966 5.71163 153.028 5.33472C152.059 4.9997 151.037 4.83219 150.005 4.83219Z" fill="white"/>
<path fill-rule="evenodd" clip-rule="evenodd" d="M137.797 4.79454C136.864 4.83582 135.606 5.04218 135.11 5.95023C134.744 6.6519 134.521 7.40516 134.521 8.1997L134.491 25.2152V26.2161C134.471 26.7836 134.43 27.3511 134.359 27.9083C134.187 29.3736 133.842 30.8492 133.233 32.2009C131.357 36.3593 127.828 38 123.436 38C121.114 38 118.862 37.5253 116.864 36.3077C115.17 35.2759 113.7 33.9241 112.767 32.1287C112.158 30.973 111.753 29.7451 111.58 28.4449C111.408 27.1448 111.337 25.8343 111.337 24.5238V8.23065C111.337 7.41548 111.195 6.58998 110.779 5.878C110.333 5.07314 109.004 4.86677 108.193 4.79454L108 4.7739V4H118.517V4.7739L118.335 4.79454C117.473 4.89773 116.144 5.17633 115.657 6.01214C115.262 6.69318 115.079 7.43611 115.079 8.23065V24.2659C115.079 26.4121 115.191 29.3839 116.032 31.3857C116.692 32.9542 117.696 34.244 119.095 35.183C120.414 36.0807 121.864 36.5554 123.446 36.5554L123.801 36.5244H124.308C124.724 36.4935 125.14 36.4419 125.546 36.3593C126.621 36.1633 127.675 35.8124 128.609 35.2346C131.753 33.2637 132.564 29.5696 132.564 26.0407V8.23065C132.564 7.42579 132.391 6.6519 131.986 5.96055C131.499 5.11442 130.12 4.8874 129.258 4.80485L129.065 4.78422V4H138V4.78422L137.797 4.79454Z" fill="white"/>
<path fill-rule="evenodd" clip-rule="evenodd" d="M92.7579 4.14669C93.9616 4.64256 95.6305 5.23141 96.9454 5.23141C97.5725 5.23141 98.1187 5.0248 98.584 4.61158C98.7154 4.46695 98.8773 4.29132 98.9885 4.10537C99.029 4.05372 99.1099 3.96075 99.12 3.9091V3.71281H100V13.6818H99.1807L99.1301 13.5372C98.5435 11.8533 97.5826 10.3244 96.4599 8.97107C95.408 7.71074 94.174 6.65703 92.7478 5.85124C91.0182 4.88017 89.1571 4.40496 87.1746 4.40496C85.7687 4.40496 84.3729 4.66323 83.0277 5.07645C81.4801 5.56199 80.1045 6.45042 78.8908 7.5248C77.3736 8.85744 76.3115 10.655 75.5428 12.5351C74.5314 15.0145 74.2279 17.845 74.2279 20.5103C74.2279 22.9587 74.501 25.5 75.3203 27.8141C75.9777 29.6839 76.9184 31.4711 78.294 32.8864C79.4875 34.126 80.8732 35.1281 82.4815 35.7169C84.0088 36.2851 85.5968 36.5744 87.2252 36.5744C89.9865 36.5744 92.4848 35.7273 94.7707 34.1467C95.6204 33.5578 96.4093 32.8864 97.1578 32.1632C97.441 31.8946 97.7242 31.6054 97.9872 31.2955C98.1086 31.2025 98.2401 31.0269 98.321 30.9235L98.4727 30.7479L98.766 30.4277L99.5246 31.3884L99.4032 31.5227C99.1706 31.781 98.9278 32.0392 98.6851 32.2872C98.3817 32.6178 98.058 32.9483 97.7343 33.2583C96.8847 34.0331 95.9946 34.7769 95.0539 35.4174C92.6972 37.0186 90.0674 38 87.2252 38C84.12 38 81.1868 37.2355 78.5165 35.624C75.8867 34.0434 73.793 31.8946 72.2657 29.2087C70.7283 26.5124 70 23.5785 70 20.4587C70 18.0826 70.4248 15.7789 71.3452 13.5888C72.2353 11.4711 73.4997 9.61157 75.1281 8.01033C76.7465 6.41942 78.5974 5.19008 80.6709 4.32231C82.7546 3.45454 84.9191 3 87.1746 3C88.267 3 89.3594 3.10331 90.4316 3.34091C91.2306 3.54752 92.0094 3.83678 92.7579 4.14669Z" fill="white"/>
<path fill-rule="evenodd" clip-rule="evenodd" d="M46.5103 3C48.2418 3 49.8908 3.21707 51.447 3.66155V5.72888C49.9629 5.01565 48.3242 4.6332 46.5103 4.6332C42.6558 4.6332 39.6051 6.35942 37.1419 9.27436C34.4314 12.4994 33.2152 16.2723 33.2152 20.4793C33.2152 24.6967 34.4211 28.4799 37.1419 31.7153C39.6051 34.6406 42.6558 36.3565 46.5103 36.3565C50.3648 36.3565 53.4258 34.6406 55.8787 31.7153C58.5892 28.4799 59.8054 24.6967 59.8054 20.4793C59.8054 18.6084 59.558 16.8201 59.053 15.1249H63.2167C63.7423 16.7995 64 18.5877 64 20.4793C64 25.3169 62.2995 29.4516 58.8881 32.873C55.4664 36.2944 51.3336 38 46.5 38C41.6767 38 37.5542 36.2841 34.1325 32.873C30.7211 29.4619 29 25.3169 29 20.4793C29 15.6418 30.7211 11.5174 34.1325 8.10632C37.5542 4.70555 41.687 3 46.5103 3Z" fill="white"/>
<path fill-rule="evenodd" clip-rule="evenodd" d="M7.19129 20.0171V32.8596C7.19129 33.774 7.42392 34.6267 8.05101 35.2945C8.6073 35.8904 9.27484 36.2192 10.084 36.2192H10.7313V37H0V36.2192H0.647317C1.45646 36.2192 2.12401 35.9212 2.66007 35.3048C3.25681 34.6267 3.46922 33.7534 3.46922 32.8596V8.20206C3.46922 7.30822 3.33773 6.10616 2.59938 5.5C2.03298 5.03767 1.37555 4.7911 0.647317 4.7911H0V4H23V9.34247H22.2414L22.2313 9.14726C22.1605 8.17123 21.8065 7.29795 21.1996 6.53767C20.4411 5.63356 19.1363 5.43836 18.0339 5.43836H7.19129V18.6301H15.7379C16.8404 18.6301 18.5699 18.5171 19.4094 17.6952C19.9455 17.2021 20.0567 16.3288 20.0567 15.6301V15.4247H20.8052V23.2123H20.0567V23.0068C20.0567 22.6781 20.0365 22.3082 19.9556 21.9897C19.8544 21.6301 19.6926 21.3116 19.4195 21.0445C18.5497 20.1712 16.8707 20.0274 15.7177 20.0274H7.19129V20.0171Z" fill="white"/>
<path fill-rule="evenodd" clip-rule="evenodd" d="M67 7.60776H63.2955V11H58.7045V7.60776H55V3.39224H58.7045V0H63.2955V3.39224H67V7.60776Z" fill="#FF0000"/>
</svg>
